<svg version="1.1" xmlns="http://www.w3.org/2000/svg" viewBox="0 0 1592 1110" width="1592" height="1110">
  <!-- svg-source:excalidraw -->
  
  <defs>
    <style class="style-fonts">
      @font-face {
        font-family: "Virgil";
        src: url("https://excalidraw.com/Virgil.woff2");
      }
      @font-face {
        font-family: "Cascadia";
        src: url("https://excalidraw.com/Cascadia.woff2");
      }
    </style>
  </defs>
  <rect x="0" y="0" width="1592" height="1110" fill="#ffffff"></rect><g stroke-linecap="round" transform="translate(690 347.99999999999994) rotate(0 30.5 27)"><path d="M15.41 -0.53 L49.01 0.27 L58.73 1.88 L61.68 8.57 L62.26 13.88 L59.49 44.59 L59.04 51.29 L53.98 53.24 L46.9 54.65 L9.94 55.16 L5.2 51.98 L0.25 44.06 L-1.73 11.84 L1.8 4.78 L3.55 1.45 L14.5 1.75" stroke="none" stroke-width="0" fill="#82c91e"></path><path d="M13.5 0 M13.5 0 C23.67 -0.56, 33.73 1.24, 47.5 0 M13.5 0 C23.13 -0.53, 33.09 1.04, 47.5 0 M47.5 0 C54.79 0.51, 62.73 4.81, 61 13.5 M47.5 0 C57.7 1.73, 60.01 6.15, 61 13.5 M61 13.5 C62.61 21.94, 62.24 29.24, 61 40.5 M61 13.5 C61.88 22.66, 60.21 34.42, 61 40.5 M61 40.5 C60.17 47.73, 57.95 53.94, 47.5 54 M61 40.5 C60.68 49.95, 55.28 51.94, 47.5 54 M47.5 54 C39.03 53.67, 31.34 54.2, 13.5 54 M47.5 54 C34.92 53.74, 24.29 53.88, 13.5 54 M13.5 54 C2.65 54.04, 0.7 48.68, 0 40.5 M13.5 54 C2.72 52.95, -0.76 51.52, 0 40.5 M0 40.5 C-1.94 33.84, 0.36 25.69, 0 13.5 M0 40.5 C-0.13 30.6, -0.78 20.69, 0 13.5 M0 13.5 C-0.15 3.19, 4.2 1.77, 13.5 0 M0 13.5 C1.59 5.65, 3.03 2.1, 13.5 0" stroke="#000000" stroke-width="1" fill="none"></path></g><g transform="translate(710.5 362.99999999999994) rotate(0 10 12)"><text x="10" y="17" font-family="Virgil, Segoe UI Emoji" font-size="20px" fill="#000000" text-anchor="middle" style="white-space: pre;" direction="ltr">E1</text></g><g stroke-linecap="round" transform="translate(784.5 347.99999999999994) rotate(0 30.5 27)"><path d="M11.65 0.04 L51.37 -0.61 L56.08 2.46 L59.5 9.35 L60.26 14.75 L59.36 41.89 L58.08 51.15 L52.81 54.86 L47.17 55.63 L9.98 54.8 L1.72 52.62 L0.06 42.35 L-0.09 12.1 L3.28 6.28 L4 3.73 L13.88 -0.07" stroke="none" stroke-width="0" fill="#82c91e"></path><path d="M13.5 0 M13.5 0 C23.21 0.39, 36.47 0.91, 47.5 0 M13.5 0 C23.56 -0.21, 34.31 -0.45, 47.5 0 M47.5 0 C55.55 1.57, 61.47 3.73, 61 13.5 M47.5 0 C57.36 -0.64, 61.22 3.99, 61 13.5 M61 13.5 C59.65 22.24, 62.25 25.78, 61 40.5 M61 13.5 C61.49 19.79, 60.07 25.08, 61 40.5 M61 40.5 C60.58 49.28, 57.85 53.77, 47.5 54 M61 40.5 C58.87 49.57, 55.2 56.03, 47.5 54 M47.5 54 C33.36 53.17, 24.05 54.37, 13.5 54 M47.5 54 C34.63 54.63, 22.38 54.39, 13.5 54 M13.5 54 C4.61 54.11, -0.91 48.17, 0 40.5 M13.5 54 C2.82 54.92, -1.27 48.81, 0 40.5 M0 40.5 C-0.82 33.55, -0.96 23.47, 0 13.5 M0 40.5 C-0.61 33.21, 0.72 25.19, 0 13.5 M0 13.5 C1.31 6.49, 4.52 1.28, 13.5 0 M0 13.5 C0.29 4.02, 3.25 -0.38, 13.5 0" stroke="#000000" stroke-width="1" fill="none"></path></g><g transform="translate(800.5 362.74999999999994) rotate(0 14.5 12)"><text x="14.5" y="17" font-family="Virgil, Segoe UI Emoji" font-size="20px" fill="#000000" text-anchor="middle" style="white-space: pre;" direction="ltr">E2</text></g><g stroke-linecap="round" transform="translate(874.5 346.99999999999994) rotate(0 30.5 27)"><path d="M13.5 0 M13.5 0 C22.75 -2.08, 32.53 -1.36, 47.5 0 M47.5 0 C58.27 1.27, 60.15 4.92, 61 13.5 M61 13.5 C61.17 20.65, 62.45 24.23, 61 40.5 M61 40.5 C60.57 50.99, 56.91 55.01, 47.5 54 M47.5 54 C35.79 52.38, 27.53 52.74, 13.5 54 M13.5 54 C3.9 54.28, -1.26 50.39, 0 40.5 M0 40.5 C-0.29 33.76, -0.95 28.78, 0 13.5 M0 13.5 C-1.41 6.2, 5.74 1.92, 13.5 0" stroke="#000000" stroke-width="1.5" fill="none" stroke-dasharray="1.5 7"></path></g><g transform="translate(280 334.99999999999994) rotate(0 103.5 52)"><text x="0" y="18" font-family="Virgil, Segoe UI Emoji" font-size="20px" fill="#000000" text-anchor="start" style="white-space: pre;" direction="ltr">limit = 3</text><text x="0" y="44" font-family="Virgil, Segoe UI Emoji" font-size="20px" fill="#000000" text-anchor="start" style="white-space: pre;" direction="ltr">offset = 0</text><text x="0" y="70" font-family="Virgil, Segoe UI Emoji" font-size="20px" fill="#000000" text-anchor="start" style="white-space: pre;" direction="ltr">resultSet = [E1, E2]</text><text x="0" y="96" font-family="Virgil, Segoe UI Emoji" font-size="20px" fill="#000000" text-anchor="start" style="white-space: pre;" direction="ltr">displayed = [E1, E2]</text></g><g stroke-linecap="round" transform="translate(1421 673) rotate(0 24 20.5)"><path d="M10.31 1.72 L39.39 -0.38 L43.48 4.13 L47.67 10.15 L48.34 32.73 L45.29 39.12 L38.33 39.8 L12.22 40.48 L3.71 37.11 L-0.52 30.31 L-0.23 6.78 L4.16 2.55 L10.58 0.01" stroke="none" stroke-width="0" fill="#82c91e"></path><path d="M10.25 0 M10.25 0 C16.12 -1.13, 25.67 -0.93, 37.75 0 M10.25 0 C15.81 -0.73, 22.35 -0.78, 37.75 0 M37.75 0 C43.31 -0.01, 47.56 2.39, 48 10.25 M37.75 0 C44.97 0.74, 46.56 5.06, 48 10.25 M48 10.25 C47.66 17.43, 48.56 20.21, 48 30.75 M48 10.25 C48.33 15.65, 48.29 18.74, 48 30.75 M48 30.75 C46.86 37.05, 46.16 39.92, 37.75 41 M48 30.75 C48.42 38.66, 45.97 40.76, 37.75 41 M37.75 41 C31.61 39.37, 22.2 41.85, 10.25 41 M37.75 41 C26.64 40.52, 16.68 42.08, 10.25 41 M10.25 41 C2.2 39.61, -1.5 38.54, 0 30.75 M10.25 41 C3.53 41.89, -0.09 38.89, 0 30.75 M0 30.75 C-0.76 26.57, 0.05 20.67, 0 10.25 M0 30.75 C-0.18 26.78, -0.2 22.72, 0 10.25 M0 10.25 C1.78 3.01, 3.01 0.19, 10.25 0 M0 10.25 C-0.62 1.7, 3.61 -0.75, 10.25 0" stroke="#000000" stroke-width="1" fill="none"></path></g><g transform="translate(1490 681) rotate(0 46 13)"><text x="0" y="18" font-family="Virgil, Segoe UI Emoji" font-size="20px" fill="#000000" text-anchor="start" style="white-space: pre;" direction="ltr">Displayed</text></g><g transform="translate(10 10) rotate(0 737 143)"><text x="0" y="18" font-family="Virgil, Segoe UI Emoji" font-size="20px" fill="#000000" text-anchor="start" style="white-space: pre;" direction="ltr">Fetch N+1 entities but only add the first N entities to the display list.</text><text x="0" y="44" font-family="Virgil, Segoe UI Emoji" font-size="20px" fill="#000000" text-anchor="start" style="white-space: pre;" direction="ltr"></text><text x="0" y="70" font-family="Virgil, Segoe UI Emoji" font-size="20px" fill="#000000" text-anchor="start" style="white-space: pre;" direction="ltr">1. The idea is to check if the (N+1) th entity exists.</text><text x="0" y="96" font-family="Virgil, Segoe UI Emoji" font-size="20px" fill="#000000" text-anchor="start" style="white-space: pre;" direction="ltr">2. If the (N+1) th entity doesn't exist we can be sure there are no more entities to fetch --&gt; hide the "Fetch More" button </text><text x="0" y="122" font-family="Virgil, Segoe UI Emoji" font-size="20px" fill="#000000" text-anchor="start" style="white-space: pre;" direction="ltr">3. If the (N+1) th entity exists we need to show the "Fetch More" button and request again.</text><text x="0" y="148" font-family="Virgil, Segoe UI Emoji" font-size="20px" fill="#000000" text-anchor="start" style="white-space: pre;" direction="ltr"></text><text x="0" y="174" font-family="Virgil, Segoe UI Emoji" font-size="20px" fill="#000000" text-anchor="start" style="white-space: pre;" direction="ltr"></text><text x="0" y="200" font-family="Virgil, Segoe UI Emoji" font-size="20px" fill="#000000" text-anchor="start" style="white-space: pre;" direction="ltr"></text><text x="0" y="226" font-family="Virgil, Segoe UI Emoji" font-size="20px" fill="#000000" text-anchor="start" style="white-space: pre;" direction="ltr">Example: entities to display = 2 (N); entities to fetch = 3 (N+1)</text><text x="0" y="252" font-family="Virgil, Segoe UI Emoji" font-size="20px" fill="#000000" text-anchor="start" style="white-space: pre;" direction="ltr"></text><text x="0" y="278" font-family="Virgil, Segoe UI Emoji" font-size="20px" fill="#000000" text-anchor="start" style="white-space: pre;" direction="ltr">Case 1: Result set contains 2 (or less than two) entities. Since there's no 3rd or (N+1) th entity we stop and don't show the "Fetch More" button </text></g><g transform="translate(14 460) rotate(0 619 26)"><text x="0" y="18" font-family="Virgil, Segoe UI Emoji" font-size="20px" fill="#000000" text-anchor="start" style="white-space: pre;" direction="ltr">Case 2: Result set contains 3 entities. Since there's a 3rd or (N+1) th entity we show the "Fetch More" button but we only</text><text x="0" y="44" font-family="Virgil, Segoe UI Emoji" font-size="20px" fill="#000000" text-anchor="start" style="white-space: pre;" direction="ltr">display the first two entities  </text></g><g transform="translate(281.5 537) rotate(0 124.5 51.99999999999997)"><text x="0" y="18" font-family="Virgil, Segoe UI Emoji" font-size="20px" fill="#000000" text-anchor="start" style="white-space: pre;" direction="ltr">limit = 3</text><text x="0" y="44" font-family="Virgil, Segoe UI Emoji" font-size="20px" fill="#000000" text-anchor="start" style="white-space: pre;" direction="ltr">offset = 0</text><text x="0" y="70" font-family="Virgil, Segoe UI Emoji" font-size="20px" fill="#000000" text-anchor="start" style="white-space: pre;" direction="ltr">resultSet = [E1, E2, E3]</text><text x="0" y="96" font-family="Virgil, Segoe UI Emoji" font-size="20px" fill="#000000" text-anchor="start" style="white-space: pre;" direction="ltr">displayed = [E1, E2]</text></g><g stroke-linecap="round" transform="translate(690.25 556) rotate(0 30.5 27)"><path d="M13.27 -0.87 L51.85 -0.61 L56.23 2.88 L59.39 5.96 L61.19 12.12 L59.88 41.74 L56.2 52.6 L54.31 54.57 L48 55.82 L8.86 55.09 L2.8 49.82 L1.72 42.08 L1.74 12.27 L3.08 4.48 L5 0.53 L14.04 1.94" stroke="none" stroke-width="0" fill="#82c91e"></path><path d="M13.5 0 M13.5 0 C21.71 1.55, 32.91 0.89, 47.5 0 M13.5 0 C25.85 -0.59, 36.91 0.2, 47.5 0 M47.5 0 C57.7 1.45, 62.97 3.94, 61 13.5 M47.5 0 C54.57 -0.14, 60.9 4.93, 61 13.5 M61 13.5 C62.53 21.8, 63.04 25.84, 61 40.5 M61 13.5 C61.23 24.28, 61.26 34.14, 61 40.5 M61 40.5 C62.15 50.8, 54.85 55.23, 47.5 54 M61 40.5 C60.41 50.6, 54.9 55.01, 47.5 54 M47.5 54 C36.29 53.48, 23.91 52.29, 13.5 54 M47.5 54 C35.49 54.19, 23.95 53.49, 13.5 54 M13.5 54 C5.24 54.58, 1.63 48.12, 0 40.5 M13.5 54 C3.59 55.33, -0.06 49.83, 0 40.5 M0 40.5 C0.63 34.71, 0.75 26.4, 0 13.5 M0 40.5 C-0.24 33.81, 1 28.49, 0 13.5 M0 13.5 C-1.13 4.33, 4.8 -1.49, 13.5 0 M0 13.5 C-2.07 2.24, 6.3 1.34, 13.5 0" stroke="#000000" stroke-width="1" fill="none"></path></g><g transform="translate(710.75 571) rotate(0 10 12)"><text x="10" y="17" font-family="Virgil, Segoe UI Emoji" font-size="20px" fill="#000000" text-anchor="middle" style="white-space: pre;" direction="ltr">E1</text></g><g stroke-linecap="round" transform="translate(784.75 556) rotate(0 30.5 27)"><path d="M14.68 -0.82 L49.27 -0.29 L56.86 1.74 L60.35 6.22 L60.09 11.57 L59.37 45.64 L58.53 52.04 L53.9 54.97 L46.02 55.3 L9.76 52.98 L4.89 49.04 L1.74 45.59 L1.39 9.54 L1.63 3.9 L5.81 3.84 L13.14 0.68" stroke="none" stroke-width="0" fill="#82c91e"></path><path d="M13.5 0 M13.5 0 C24.46 0.67, 36.02 -1.6, 47.5 0 M13.5 0 C23.48 0.44, 35.44 0.91, 47.5 0 M47.5 0 C58.47 -0.56, 59.32 4.38, 61 13.5 M47.5 0 C56.4 0.43, 60.18 5.79, 61 13.5 M61 13.5 C63.08 20.19, 62.5 31.44, 61 40.5 M61 13.5 C61.21 20.71, 61.61 26.79, 61 40.5 M61 40.5 C59.35 50.73, 55.98 54.96, 47.5 54 M61 40.5 C59.4 50.51, 57.42 52.6, 47.5 54 M47.5 54 C35.54 52.05, 25.55 53.98, 13.5 54 M47.5 54 C36.41 53.39, 24.97 54.31, 13.5 54 M13.5 54 C6.13 52.62, -0.79 50.66, 0 40.5 M13.5 54 C4.44 54.33, -0.52 47.62, 0 40.5 M0 40.5 C0.48 33.94, -1.64 24.94, 0 13.5 M0 40.5 C1 29.98, -0.47 19.54, 0 13.5 M0 13.5 C0.3 3.01, 2.7 -1.97, 13.5 0 M0 13.5 C1.8 5.84, 5.38 -0.3, 13.5 0" stroke="#000000" stroke-width="1" fill="none"></path></g><g transform="translate(800.75 570.75) rotate(0 14.5 12)"><text x="14.5" y="17" font-family="Virgil, Segoe UI Emoji" font-size="20px" fill="#000000" text-anchor="middle" style="white-space: pre;" direction="ltr">E2</text></g><g stroke-linecap="round" transform="translate(878.5 555) rotate(0 30.5 27)"><path d="M13.5 0 M13.5 0 C23.18 -1.48, 28.8 1.06, 47.5 0 M13.5 0 C22.8 -0.17, 33.94 0.93, 47.5 0 M47.5 0 C57.03 0.89, 59.42 3.83, 61 13.5 M47.5 0 C58.49 -0.76, 59.34 6.6, 61 13.5 M61 13.5 C61.14 19.89, 59.05 27.3, 61 40.5 M61 13.5 C61.03 22.79, 61.68 34.27, 61 40.5 M61 40.5 C61.3 47.88, 55.61 54.9, 47.5 54 M61 40.5 C63.14 49.7, 54.39 52.78, 47.5 54 M47.5 54 C39.57 52.53, 30.43 53.35, 13.5 54 M47.5 54 C37.29 53.17, 24.44 53.26, 13.5 54 M13.5 54 C2.56 54.5, -1.99 48.06, 0 40.5 M13.5 54 C2.21 52.58, -2.13 49.17, 0 40.5 M0 40.5 C0.23 29.34, 1.17 21.85, 0 13.5 M0 40.5 C0.05 31.4, -0.03 22.27, 0 13.5 M0 13.5 C-1.33 6.47, 3.6 -1.47, 13.5 0 M0 13.5 C1.83 6.22, 4.1 1.59, 13.5 0" stroke="#000000" stroke-width="1" fill="none"></path></g><g transform="translate(895 569.75) rotate(0 14 12)"><text x="14" y="17" font-family="Virgil, Segoe UI Emoji" font-size="20px" fill="#000000" text-anchor="middle" style="white-space: pre;" direction="ltr">E3</text></g><g transform="translate(105 670) rotate(0 575.5 13)"><text x="0" y="18" font-family="Virgil, Segoe UI Emoji" font-size="20px" fill="#000000" text-anchor="start" style="white-space: pre;" direction="ltr">Now, since we have enabled the "Fetch More" button, lets make the next query to fetch the next page of entitties</text></g><g transform="translate(279.5 730) rotate(0 142.5 52)"><text x="0" y="18" font-family="Virgil, Segoe UI Emoji" font-size="20px" fill="#000000" text-anchor="start" style="white-space: pre;" direction="ltr">limit = 3</text><text x="0" y="44" font-family="Virgil, Segoe UI Emoji" font-size="20px" fill="#000000" text-anchor="start" style="white-space: pre;" direction="ltr">offset = 2</text><text x="0" y="70" font-family="Virgil, Segoe UI Emoji" font-size="20px" fill="#000000" text-anchor="start" style="white-space: pre;" direction="ltr">resultSet = [E3, E4, E5]</text><text x="0" y="96" font-family="Virgil, Segoe UI Emoji" font-size="20px" fill="#000000" text-anchor="start" style="white-space: pre;" direction="ltr">displayed = [E1, E2, E3, E4]</text></g><g stroke-linecap="round" transform="translate(688.375 766.5000000000001) rotate(0 30.5 27)"><path d="M11.72 0.08 L49.07 -1.31 L58.08 1.56 L60.12 9.56 L59.23 11.79 L59.66 45.48 L55.99 50.44 L51.99 53.76 L48.9 53.99 L11.57 55.48 L2.98 50.43 L1.91 42.88 L-0.84 8.38 L3.47 5.36 L6.42 3.15 L12.66 2" stroke="none" stroke-width="0" fill="#82c91e"></path><path d="M13.5 0 M13.5 0 C25.87 -0.45, 39.09 0.4, 47.5 0 M13.5 0 C25.6 -0.81, 38.87 -0.5, 47.5 0 M47.5 0 C54.52 -0.54, 59.62 2.65, 61 13.5 M47.5 0 C56.47 1.66, 63.11 5.29, 61 13.5 M61 13.5 C61.12 21.64, 60.65 31.65, 61 40.5 M61 13.5 C61.1 23.65, 61.72 32.66, 61 40.5 M61 40.5 C61.49 50.89, 55.83 55.1, 47.5 54 M61 40.5 C60.7 49.04, 56.22 54.12, 47.5 54 M47.5 54 C38.27 52.47, 27.7 53, 13.5 54 M47.5 54 C36.14 54.85, 22.91 54.4, 13.5 54 M13.5 54 C2.95 52.24, 0.21 50.34, 0 40.5 M13.5 54 C4.53 55.67, 0.36 47.27, 0 40.5 M0 40.5 C1.15 33.61, 2.25 29.17, 0 13.5 M0 40.5 C1.19 33.14, 0.15 25.17, 0 13.5 M0 13.5 C-1.63 4.52, 4.2 -1.7, 13.5 0 M0 13.5 C-0.04 5.82, 6.79 -1.96, 13.5 0" stroke="#000000" stroke-width="1" fill="none"></path></g><g transform="translate(708.875 781.5) rotate(0 10 12)"><text x="10" y="17" font-family="Virgil, Segoe UI Emoji" font-size="20px" fill="#000000" text-anchor="middle" style="white-space: pre;" direction="ltr">E1</text></g><g stroke-linecap="round" transform="translate(782.875 766.5000000000001) rotate(0 30.5 27)"><path d="M11.9 -1.52 L51.12 -1.6 L57.58 5.34 L58.39 5.88 L59.87 15.31 L59.15 43.48 L56.2 51.23 L54.8 53.15 L48.73 55.69 L9.94 53.6 L5.07 49.84 L-0.84 41.7 L1.78 10.42 L3.04 6.52 L4.44 3.9 L15.1 1.77" stroke="none" stroke-width="0" fill="#82c91e"></path><path d="M13.5 0 M13.5 0 C22.57 0.41, 33.86 -0.32, 47.5 0 M13.5 0 C24.72 -0.11, 36.41 -0.06, 47.5 0 M47.5 0 C55.12 -1.85, 60.98 5.94, 61 13.5 M47.5 0 C58.61 0.79, 61.69 5.73, 61 13.5 M61 13.5 C60.5 21.82, 61.83 29.41, 61 40.5 M61 13.5 C61.76 23.26, 61.27 32.31, 61 40.5 M61 40.5 C60.33 50.6, 56.24 53.6, 47.5 54 M61 40.5 C60.72 49.62, 56.83 54.49, 47.5 54 M47.5 54 C36.05 52.41, 22.49 54.9, 13.5 54 M47.5 54 C35.77 54.57, 24.45 53.38, 13.5 54 M13.5 54 C4.71 54.84, 0.02 50.95, 0 40.5 M13.5 54 C4.86 51.77, -1.68 47.33, 0 40.5 M0 40.5 C1.88 30.94, -0.37 17.62, 0 13.5 M0 40.5 C-0.36 33.07, -1.07 25.27, 0 13.5 M0 13.5 C-0.3 2.8, 4.46 1.14, 13.5 0 M0 13.5 C2.29 2.54, 6.65 1.96, 13.5 0" stroke="#000000" stroke-width="1" fill="none"></path></g><g transform="translate(798.875 781.25) rotate(0 14.5 12)"><text x="14.5" y="17" font-family="Virgil, Segoe UI Emoji" font-size="20px" fill="#000000" text-anchor="middle" style="white-space: pre;" direction="ltr">E2</text></g><g stroke-linecap="round" transform="translate(876.625 765.5) rotate(0 30.5 27)"><path d="M13.96 -1.81 L50.62 2.17 L55.85 1.66 L59.03 9.41 L59.36 13.32 L59.37 44.27 L59.02 50.62 L54.64 54.85 L47.1 53.81 L12.03 53 L2.32 48.66 L1.78 43.75 L1.35 11.58 L1.06 7.27 L6.88 3.67 L12.99 -0.56" stroke="none" stroke-width="0" fill="#82c91e"></path><path d="M13.5 0 M13.5 0 C24.47 -0.47, 33.12 -1.96, 47.5 0 M13.5 0 C20.57 -0.16, 28.92 -0.81, 47.5 0 M47.5 0 C56.48 1.44, 62.83 5.19, 61 13.5 M47.5 0 C57.19 1.23, 60.91 4.48, 61 13.5 M61 13.5 C61.77 20.48, 61.64 27.84, 61 40.5 M61 13.5 C61.44 24.79, 60.86 35.24, 61 40.5 M61 40.5 C60.74 49.1, 56.25 54.1, 47.5 54 M61 40.5 C61.33 49.99, 58.42 55.69, 47.5 54 M47.5 54 C41.43 54.99, 33.8 55.06, 13.5 54 M47.5 54 C33.96 53.23, 22.07 54.53, 13.5 54 M13.5 54 C4.52 55.45, 0.31 47.56, 0 40.5 M13.5 54 C2.82 51.83, 2.03 50.53, 0 40.5 M0 40.5 C-0.52 31.52, -0.63 28.21, 0 13.5 M0 40.5 C-0.79 31.33, -0.12 21.29, 0 13.5 M0 13.5 C-0.04 5.64, 6.49 -1.71, 13.5 0 M0 13.5 C2.15 6.46, 6.19 -2.26, 13.5 0" stroke="#000000" stroke-width="1" fill="none"></path></g><g transform="translate(893.125 780.25) rotate(0 14 12)"><text x="14" y="17" font-family="Virgil, Segoe UI Emoji" font-size="20px" fill="#000000" text-anchor="middle" style="white-space: pre;" direction="ltr">E3</text></g><g stroke-linecap="round" transform="translate(966.5 764) rotate(0 30.5 27)"><path d="M13.36 -1.4 L51.27 1.16 L56.24 3.96 L61.17 9.16 L61.42 11.99 L60.16 42.74 L58.39 51.31 L53.71 54.11 L48.42 52.27 L11.57 52.2 L5.33 49.67 L-1.43 44.02 L-1.09 11.88 L2.56 4.7 L7.06 2.91 L13.4 1.99" stroke="none" stroke-width="0" fill="#82c91e"></path><path d="M13.5 0 M13.5 0 C21.13 0.23, 31.96 -1.96, 47.5 0 M13.5 0 C23.28 1.22, 31.58 -0.43, 47.5 0 M47.5 0 C55.31 -1.65, 61.61 5.26, 61 13.5 M47.5 0 C57.07 2.1, 61.55 2.72, 61 13.5 M61 13.5 C60.83 22.58, 61.18 30.72, 61 40.5 M61 13.5 C61.43 19.85, 60.39 24.75, 61 40.5 M61 40.5 C62.1 50.46, 56.43 52.46, 47.5 54 M61 40.5 C58.99 50.52, 55.54 54.46, 47.5 54 M47.5 54 C37.25 54.74, 25.97 54.81, 13.5 54 M47.5 54 C37.22 54.78, 25.95 53.95, 13.5 54 M13.5 54 C5.77 53.96, -0.93 48.47, 0 40.5 M13.5 54 C5.12 55.36, 0.93 47.27, 0 40.5 M0 40.5 C-0.39 32.24, 0.58 22.79, 0 13.5 M0 40.5 C0.02 33.06, 0.8 24.4, 0 13.5 M0 13.5 C-1.67 4.67, 3.71 0.51, 13.5 0 M0 13.5 C1.18 5.69, 4.4 -1.68, 13.5 0" stroke="#000000" stroke-width="1" fill="none"></path></g><g transform="translate(983.5 778.75) rotate(0 13.5 12)"><text x="13.5" y="17" font-family="Virgil, Segoe UI Emoji" font-size="20px" fill="#000000" text-anchor="middle" style="white-space: pre;" direction="ltr">E4</text></g><g stroke-linecap="round" transform="translate(1053.5 763) rotate(0 30.5 27)"><path d="M13.5 0 M13.5 0 C27.8 -0.04, 38.63 -1.03, 47.5 0 M13.5 0 C23.64 -0.03, 35.17 -0.81, 47.5 0 M47.5 0 C55.96 0.12, 61.43 3.56, 61 13.5 M47.5 0 C56.59 1, 61.89 4.82, 61 13.5 M61 13.5 C59.58 23.84, 60.46 34.36, 61 40.5 M61 13.5 C60.41 23.97, 61.09 32.32, 61 40.5 M61 40.5 C61.62 47.99, 57.8 55.05, 47.5 54 M61 40.5 C59.09 51.55, 56.97 53.17, 47.5 54 M47.5 54 C39.39 53.97, 28.49 52.47, 13.5 54 M47.5 54 C37.76 55.01, 28.01 54.01, 13.5 54 M13.5 54 C6.08 52.15, 0.28 48.06, 0 40.5 M13.5 54 C5.31 55.71, -0.12 49.87, 0 40.5 M0 40.5 C0.52 29.31, -0.22 18.6, 0 13.5 M0 40.5 C-0.79 30.19, 0.4 20.08, 0 13.5 M0 13.5 C-1.29 5.72, 6.2 0.64, 13.5 0 M0 13.5 C0.19 2.52, 4 -0.88, 13.5 0" stroke="#000000" stroke-width="1" fill="none"></path></g><g transform="translate(1070.5 777.75) rotate(0 13.5 12)"><text x="13.5" y="17" font-family="Virgil, Segoe UI Emoji" font-size="20px" fill="#000000" text-anchor="middle" style="white-space: pre;" direction="ltr">E5</text></g><g transform="translate(96.5 871) rotate(0 459.5 13)"><text x="0" y="18" font-family="Virgil, Segoe UI Emoji" font-size="20px" fill="#000000" text-anchor="start" style="white-space: pre;" direction="ltr">If E5 is the last entity, then we will still request the next page but we'd get back only E5</text></g><g transform="translate(288.5 937) rotate(0 163 52)"><text x="0" y="18" font-family="Virgil, Segoe UI Emoji" font-size="20px" fill="#000000" text-anchor="start" style="white-space: pre;" direction="ltr">limit = 3</text><text x="0" y="44" font-family="Virgil, Segoe UI Emoji" font-size="20px" fill="#000000" text-anchor="start" style="white-space: pre;" direction="ltr">offset = 4</text><text x="0" y="70" font-family="Virgil, Segoe UI Emoji" font-size="20px" fill="#000000" text-anchor="start" style="white-space: pre;" direction="ltr">resultSet = [E5]</text><text x="0" y="96" font-family="Virgil, Segoe UI Emoji" font-size="20px" fill="#000000" text-anchor="start" style="white-space: pre;" direction="ltr">displayed = [E1, E2, E3, E4, E5]</text></g><g stroke-linecap="round" transform="translate(687.9375 958.75) rotate(0 30.5 27)"><path d="M11.58 1.37 L49.31 1.51 L56.05 2.62 L58.62 9.1 L60.5 15.21 L61.18 45.09 L56.14 51.31 L53.67 51.74 L48.93 53.81 L12.04 53.01 L4.4 51.05 L-1.68 43.97 L-0.96 9.95 L0.58 4.8 L4.45 2.08 L11.86 1.28" stroke="none" stroke-width="0" fill="#82c91e"></path><path d="M13.5 0 M13.5 0 C20.97 -1.3, 32.24 -0.14, 47.5 0 M13.5 0 C22.24 -0.03, 33.38 -0.24, 47.5 0 M47.5 0 C58.4 0.84, 61.99 6.09, 61 13.5 M47.5 0 C56.48 0.54, 59.98 5.97, 61 13.5 M61 13.5 C58.76 20.6, 62.03 32.66, 61 40.5 M61 13.5 C61.26 22.3, 61.27 31.27, 61 40.5 M61 40.5 C59.03 50.02, 56.92 52.73, 47.5 54 M61 40.5 C62.26 47.27, 58.2 52.29, 47.5 54 M47.5 54 C39.83 53.82, 27.86 54.64, 13.5 54 M47.5 54 C40.86 53.85, 33.35 53.64, 13.5 54 M13.5 54 C2.62 55.01, -1.85 50.09, 0 40.5 M13.5 54 C4.9 54.69, 0.24 48.67, 0 40.5 M0 40.5 C-0.41 36.22, 1.24 29.41, 0 13.5 M0 40.5 C0.9 31.45, 0.53 21.92, 0 13.5 M0 13.5 C-0.41 3.2, 5.85 -1.59, 13.5 0 M0 13.5 C-1.24 3.19, 5.49 0.68, 13.5 0" stroke="#000000" stroke-width="1" fill="none"></path></g><g transform="translate(708.4375 973.75) rotate(0 10 12)"><text x="10" y="17" font-family="Virgil, Segoe UI Emoji" font-size="20px" fill="#000000" text-anchor="middle" style="white-space: pre;" direction="ltr">E1</text></g><g stroke-linecap="round" transform="translate(782.4375 958.75) rotate(0 30.5 27)"><path d="M12.15 1.3 L49.09 -0.54 L56.09 4.88 L59.66 9.31 L61.39 14.93 L59.3 44.35 L57.89 49.21 L54.84 52.96 L49.2 53.22 L11.36 54.21 L1.49 50.93 L-0.96 43.28 L-1.11 9.86 L1.08 5.45 L3.63 3.17 L12.67 0.62" stroke="none" stroke-width="0" fill="#82c91e"></path><path d="M13.5 0 M13.5 0 C24.71 0.07, 33.17 -1.38, 47.5 0 M13.5 0 C27.62 -0.03, 40.93 0.33, 47.5 0 M47.5 0 C57.49 1.59, 60.98 4.97, 61 13.5 M47.5 0 C55.48 1.47, 61.43 2.36, 61 13.5 M61 13.5 C62.02 23.45, 61.06 29.06, 61 40.5 M61 13.5 C61.41 22.36, 60.1 30.14, 61 40.5 M61 40.5 C61.42 48.23, 57.6 52.06, 47.5 54 M61 40.5 C62.7 47.79, 55.95 54.64, 47.5 54 M47.5 54 C36.15 54.58, 24.63 53.13, 13.5 54 M47.5 54 C39.39 53.89, 30.67 54.53, 13.5 54 M13.5 54 C2.65 54.59, 0.35 50.1, 0 40.5 M13.5 54 C4.74 53.17, -1.6 48.97, 0 40.5 M0 40.5 C1.24 36.16, 0.85 28.26, 0 13.5 M0 40.5 C0.2 30.03, -0.42 19.44, 0 13.5 M0 13.5 C1.35 2.91, 3.43 -1.14, 13.5 0 M0 13.5 C0.99 5.18, 4.35 -1.13, 13.5 0" stroke="#000000" stroke-width="1" fill="none"></path></g><g transform="translate(798.4375 973.5) rotate(0 14.5 12)"><text x="14.5" y="17" font-family="Virgil, Segoe UI Emoji" font-size="20px" fill="#000000" text-anchor="middle" style="white-space: pre;" direction="ltr">E2</text></g><g stroke-linecap="round" transform="translate(876.1875 957.75) rotate(0 30.5 27)"><path d="M11.92 -0.75 L49.13 1.72 L57.13 5.09 L60.55 9.02 L59.51 14.19 L61.05 42.25 L59.06 50.43 L55.11 52.38 L48.53 54.42 L8.45 54.1 L2.21 50.24 L-1.11 43.19 L-0.61 10.51 L0.26 6.55 L4.44 2.52 L13.41 -1.32" stroke="none" stroke-width="0" fill="#82c91e"></path><path d="M13.5 0 M13.5 0 C21.05 -1.58, 31.21 -1.5, 47.5 0 M13.5 0 C25.58 0.4, 36.26 0.77, 47.5 0 M47.5 0 C56.48 0.47, 60.11 5.78, 61 13.5 M47.5 0 C56.93 -2.14, 60.9 2.21, 61 13.5 M61 13.5 C61.51 19.18, 61.24 26.29, 61 40.5 M61 13.5 C60.1 22.54, 61.3 30.43, 61 40.5 M61 40.5 C62.1 47.56, 57.98 52.51, 47.5 54 M61 40.5 C60.45 50.14, 56.7 55.98, 47.5 54 M47.5 54 C35.77 53.26, 26.48 54.81, 13.5 54 M47.5 54 C36.11 54.46, 25.67 54.25, 13.5 54 M13.5 54 C4.85 54.6, 0.21 48.78, 0 40.5 M13.5 54 C2.9 53.47, -2.05 48.96, 0 40.5 M0 40.5 C0.62 28.93, 1.4 20.63, 0 13.5 M0 40.5 C-0.32 31.47, 0.56 22.94, 0 13.5 M0 13.5 C-1.07 3.36, 5.36 0.59, 13.5 0 M0 13.5 C-0.15 3.37, 3.68 1.09, 13.5 0" stroke="#000000" stroke-width="1" fill="none"></path></g><g transform="translate(892.6875 972.5) rotate(0 14 12)"><text x="14" y="17" font-family="Virgil, Segoe UI Emoji" font-size="20px" fill="#000000" text-anchor="middle" style="white-space: pre;" direction="ltr">E3</text></g><g stroke-linecap="round" transform="translate(966.0625 956.25) rotate(0 30.5 27)"><path d="M11.96 1.51 L50.17 1.93 L58.01 4.8 L58.67 8.28 L61.26 12.08 L62.22 43.47 L59.33 49.85 L54.43 53.58 L45.61 54.31 L9.17 53.41 L2.05 50.15 L-0.61 43.84 L-1.43 11.61 L1.06 5.89 L5.18 0.58 L12.18 1.17" stroke="none" stroke-width="0" fill="#82c91e"></path><path d="M13.5 0 M13.5 0 C25.22 -1.25, 33.91 2.03, 47.5 0 M13.5 0 C24.42 0.65, 34.34 0.09, 47.5 0 M47.5 0 C55.61 1.28, 61.37 2.64, 61 13.5 M47.5 0 C56.4 -2.29, 59.28 5.98, 61 13.5 M61 13.5 C61.11 24.88, 61.55 35.65, 61 40.5 M61 13.5 C60.94 22.79, 61.28 32.38, 61 40.5 M61 40.5 C62.48 48.01, 56.02 54.56, 47.5 54 M61 40.5 C61.2 51.48, 56.26 53.01, 47.5 54 M47.5 54 C34.93 54.56, 25.17 53.53, 13.5 54 M47.5 54 C36.84 54.47, 28.21 54.47, 13.5 54 M13.5 54 C4.71 53.28, -1.39 49.04, 0 40.5 M13.5 54 C2.45 53.46, 2.23 50.85, 0 40.5 M0 40.5 C1.46 32.14, 0.11 21.47, 0 13.5 M0 40.5 C0.73 32.32, -0.48 25.15, 0 13.5 M0 13.5 C0.86 5.09, 4.37 -0.99, 13.5 0 M0 13.5 C-0.82 5.59, 6.22 -0.92, 13.5 0" stroke="#000000" stroke-width="1" fill="none"></path></g><g transform="translate(983.0625 971) rotate(0 13.5 12)"><text x="13.5" y="17" font-family="Virgil, Segoe UI Emoji" font-size="20px" fill="#000000" text-anchor="middle" style="white-space: pre;" direction="ltr">E4</text></g><g stroke-linecap="round" transform="translate(1053.0625 955.25) rotate(0 30.5 27)"><path d="M13 1.71 L51.05 1.64 L56.14 4.06 L60.42 6.18 L62.43 13.31 L62.49 42.89 L58.65 51.05 L51.52 53.46 L46.33 53.62 L9.01 53.31 L2.55 50.8 L-1.43 44.94 L-0.62 10.96 L1.8 3.96 L3.96 3.07 L13.34 -0.41" stroke="none" stroke-width="0" fill="#82c91e"></path><path d="M13.5 0 M13.5 0 C21.52 2.01, 28.58 2.16, 47.5 0 M13.5 0 C25.12 -0.04, 36.32 0.37, 47.5 0 M47.5 0 C56.87 -1.86, 60.91 2.51, 61 13.5 M47.5 0 C54.78 1.48, 63.26 4.88, 61 13.5 M61 13.5 C61.52 21.7, 62.36 26.64, 61 40.5 M61 13.5 C61.61 21.33, 61.8 30.35, 61 40.5 M61 40.5 C60.52 50.06, 56.67 55.72, 47.5 54 M61 40.5 C60.76 48.51, 57.2 51.83, 47.5 54 M47.5 54 C38.88 53.79, 29.68 52.24, 13.5 54 M47.5 54 C35.76 54.4, 23.77 53.74, 13.5 54 M13.5 54 C3.11 53.54, -1.78 49.03, 0 40.5 M13.5 54 C6.73 55.35, 1.56 50.4, 0 40.5 M0 40.5 C0 34.38, -0.74 26.17, 0 13.5 M0 40.5 C-0.72 33.58, 0.25 28.1, 0 13.5 M0 13.5 C-0.13 3.51, 3.79 0.95, 13.5 0 M0 13.5 C1.72 3.58, 2.61 1.3, 13.5 0" stroke="#000000" stroke-width="1" fill="none"></path></g><g transform="translate(1070.0625 970.25) rotate(0 13.5 12)"><text x="13.5" y="17" font-family="Virgil, Segoe UI Emoji" font-size="20px" fill="#000000" text-anchor="middle" style="white-space: pre;" direction="ltr">E5</text></g><g transform="translate(98 1074) rotate(0 381.5 13)"><text x="0" y="18" font-family="Virgil, Segoe UI Emoji" font-size="20px" fill="#000000" text-anchor="start" style="white-space: pre;" direction="ltr">Finally, we show the last entity E5 and disable/hide the "Fetch More" button</text></g></svg>